<svg xmlns="http://www.w3.org/2000/svg" xmlns:xlink="http://www.w3.org/1999/xlink" width="150" height="43.161" viewBox="0 0 150 43.161">
  <defs>
    <clipPath id="clip-path">
      <rect id="Retângulo_1" data-name="Retângulo 1" width="150" height="43.161" fill="#fff"/>
    </clipPath>
  </defs>
  <g id="Grupo_11" data-name="Grupo 11" transform="translate(0 0)">
    <g id="Grupo_1" data-name="Grupo 1" transform="translate(0 0)" clip-path="url(#clip-path)">
      <path id="Caminho_1" data-name="Caminho 1" d="M64.748,12.075v3.045a.349.349,0,0,1-.106.251,4.562,4.562,0,0,1-1.417.926,4.927,4.927,0,0,1-1.869.339,4.564,4.564,0,0,1-2.243-.536,3.754,3.754,0,0,1-1.505-1.511,4.625,4.625,0,0,1-.536-2.261,4.52,4.52,0,0,1,.559-2.255A3.98,3.98,0,0,1,59.2,8.52a4.745,4.745,0,0,1,5.021.314.346.346,0,0,1,.078.489l-.362.479a.34.34,0,0,1-.463.082,3.354,3.354,0,0,0-1.984-.638,3.182,3.182,0,0,0-1.577.38,2.661,2.661,0,0,0-1.059,1.065,3.257,3.257,0,0,0-.375,1.589,3.552,3.552,0,0,0,.357,1.637,2.518,2.518,0,0,0,1.024,1.071,3.1,3.1,0,0,0,1.547.374,3.608,3.608,0,0,0,1.107-.16,3.242,3.242,0,0,0,.816-.4.342.342,0,0,0,.148-.284V13.289a.342.342,0,0,0-.342-.342H61.5a.342.342,0,0,1-.342-.342v-.53a.342.342,0,0,1,.342-.342h2.91a.342.342,0,0,1,.342.342" transform="translate(-9.365 -1.306)" fill="#fff"/>
      <path id="Caminho_2" data-name="Caminho 2" d="M68.939,11.085a.342.342,0,0,1,.342.354q-.008.29-.03.61h.024a1.692,1.692,0,0,1,.655-.773,1.946,1.946,0,0,1,1.107-.309A2.837,2.837,0,0,1,71.47,11a.338.338,0,0,1,.263.432l-.152.517a.334.334,0,0,1-.367.243,1.969,1.969,0,0,0-.308-.022,1.4,1.4,0,0,0-1.107.476,1.867,1.867,0,0,0-.416,1.273v2.705a.342.342,0,0,1-.342.342h-.65a.342.342,0,0,1-.342-.342v-5.2a.342.342,0,0,1,.342-.342Z" transform="translate(-11.166 -1.799)" fill="#fff"/>
      <path id="Caminho_3" data-name="Caminho 3" d="M82.948,16.344a2.964,2.964,0,0,1-.672-2.035V11.45a.342.342,0,0,1,.342-.342h.649a.342.342,0,0,1,.342.342v2.824A1.765,1.765,0,0,0,84,15.481a1.353,1.353,0,0,0,1.071.446,1.423,1.423,0,0,0,1.113-.488,1.79,1.79,0,0,0,.435-1.238V11.45a.342.342,0,0,1,.342-.342h.65a.342.342,0,0,1,.342.342v5.2a.342.342,0,0,1-.342.342h-.538a.345.345,0,0,1-.343-.352q.008-.372.033-.612h-.036a1.926,1.926,0,0,1-.792.809,2.4,2.4,0,0,1-1.16.273,2.313,2.313,0,0,1-1.826-.762" transform="translate(-13.501 -1.823)" fill="#fff"/>
      <path id="Caminho_4" data-name="Caminho 4" d="M92.125,11.081a.34.34,0,0,1,.341.363q-.018.251-.055.614h.024a1.934,1.934,0,0,1,.809-.786,2.624,2.624,0,0,1,1.309-.321,2.863,2.863,0,0,1,1.464.38,2.651,2.651,0,0,1,1.023,1.077,3.385,3.385,0,0,1,.369,1.612,3.348,3.348,0,0,1-.375,1.612A2.682,2.682,0,0,1,96,16.71a2.912,2.912,0,0,1-1.482.381,2.516,2.516,0,0,1-1.261-.3,1.933,1.933,0,0,1-.786-.78h-.035a10.652,10.652,0,0,1,.071,1.345v1.979a.342.342,0,0,1-.342.342h-.649a.342.342,0,0,1-.342-.342V11.423a.342.342,0,0,1,.342-.342Zm3.44,4.308a1.845,1.845,0,0,0,.512-1.345,1.94,1.94,0,0,0-.5-1.38,1.83,1.83,0,0,0-2.582-.006,1.871,1.871,0,0,0-.5,1.338,1.957,1.957,0,0,0,.494,1.381,1.645,1.645,0,0,0,1.267.535,1.749,1.749,0,0,0,1.309-.523" transform="translate(-14.961 -1.797)" fill="#fff"/>
      <path id="Caminho_5" data-name="Caminho 5" d="M74.947,16.7a2.725,2.725,0,0,1-1.083-1.089,3.406,3.406,0,0,1,.012-3.154,2.779,2.779,0,0,1,1.118-1.107,3.406,3.406,0,0,1,1.666-.4,3.264,3.264,0,0,1,1.619.393,2.68,2.68,0,0,1,1.077,1.089,3.428,3.428,0,0,1-.018,3.153,2.79,2.79,0,0,1-1.113,1.107,3.365,3.365,0,0,1-1.66.4,3.263,3.263,0,0,1-1.619-.392m2.6-1.036a1.717,1.717,0,0,0,.637-.679,1.982,1.982,0,0,0,.226-.94,2.125,2.125,0,0,0-.22-.97,1.708,1.708,0,0,0-.631-.69,1.729,1.729,0,0,0-.934-.256,1.778,1.778,0,0,0-.946.25,1.709,1.709,0,0,0-.637.678,1.988,1.988,0,0,0-.226.94,2.108,2.108,0,0,0,.22.97,1.7,1.7,0,0,0,.631.69,1.729,1.729,0,0,0,.934.256,1.785,1.785,0,0,0,.946-.25" transform="translate(-12.058 -1.797)" fill="#fff"/>
      <path id="Caminho_6" data-name="Caminho 6" d="M91.845,34.579V44.713a1.859,1.859,0,0,1-2.054,2.054H87.805a1.859,1.859,0,0,1-2.054-2.054V34.267c0-3.192-1.362-4.62-4.308-4.62s-4.04,1.429-4.04,4.62V44.713a1.859,1.859,0,0,1-2.054,2.054H73.385a1.858,1.858,0,0,1-2.053-2.054V34.267c0-3.192-1.094-4.62-4.041-4.62s-4.308,1.429-4.308,4.62V44.713a1.858,1.858,0,0,1-2.053,2.054H58.943a1.859,1.859,0,0,1-2.054-2.054V34.579c0-7.455,3.862-10.156,9.866-10.156,3.974,0,6.3,1.139,7.612,3.147,1.295-2.009,3.639-3.147,7.589-3.147,6.027,0,9.889,2.7,9.889,10.156" transform="translate(-9.335 -4.008)" fill="#d70e2e"/>
      <path id="Caminho_7" data-name="Caminho 7" d="M118.212,37.817l-9.442.982c.8,2.5,2.835,3.393,5.8,3.393a22.166,22.166,0,0,0,5.112-.715c1.451-.335,2.321.29,2.321,1.741v.67a2.147,2.147,0,0,1-1.74,2.3,26.339,26.339,0,0,1-6.786.982c-6.764,0-11.295-3.683-11.295-11.362,0-7.254,3.839-11.383,11.339-11.383,6.3,0,10.023,2.946,10.023,8.526,0,3.125-1.317,4.442-5.335,4.867m-.536-5.447c0-2.121-1.295-3.259-4.152-3.259-3.1,0-4.755,1.407-5.089,5.179l7.7-.782c1.295-.134,1.541-.38,1.541-1.139" transform="translate(-16.767 -4.008)" fill="#d70e2e"/>
      <path id="Caminho_8" data-name="Caminho 8" d="M148.077,13.769h2.1a1.859,1.859,0,0,1,2.054,2.054v22.59c0,5-2.79,7.008-9.309,7.008-7.835,0-12.478-2.9-12.478-11.383,0-8.5,4.643-11.362,12.478-11.362.982,0,2.031.044,3.1.134V15.823a1.859,1.859,0,0,1,2.054-2.054m-2.054,23.706v-9.33a26.248,26.248,0,0,0-3.482-.268c-4.152,0-5.892,1.474-5.892,6.161,0,4.62,1.74,6.161,5.848,6.161,3.17,0,3.527-.915,3.527-2.723" transform="translate(-21.404 -2.259)" fill="#d70e2e"/>
      <path id="Caminho_9" data-name="Caminho 9" d="M172.945,32.489h-6.131V26.358a2.056,2.056,0,0,0-2.053-2.053h-2.188a2.055,2.055,0,0,0-2.052,2.053v6.131h-6.131a2.054,2.054,0,0,0-2.052,2.052V36.73a2.054,2.054,0,0,0,2.052,2.052h6.131v6.131a2.055,2.055,0,0,0,2.052,2.053h2.188a2.056,2.056,0,0,0,2.053-2.053V38.782h6.131A2.055,2.055,0,0,0,175,36.73V34.541a2.055,2.055,0,0,0-2.053-2.052" transform="translate(-24.997 -3.988)" fill="#36ae73"/>
      <path id="Caminho_10" data-name="Caminho 10" d="M40.332,25.888v6.149a1.49,1.49,0,0,0,2.544,1.054l6.148-6.148A1.49,1.49,0,0,0,47.971,24.4l-6.148,0a1.49,1.49,0,0,0-1.49,1.49" transform="translate(-6.618 -4.003)" fill="#fff"/>
      <path id="Caminho_11" data-name="Caminho 11" d="M25.065,7.642V1.493A1.49,1.49,0,0,0,22.521.439L16.373,6.587a1.49,1.49,0,0,0,1.053,2.544l6.148,0a1.49,1.49,0,0,0,1.49-1.49" transform="translate(-2.614 0)" fill="#36ae73"/>
      <path id="Caminho_12" data-name="Caminho 12" d="M22.331,22.479a.485.485,0,0,0-.348-.146l-.7,0h-8.55a1.49,1.49,0,0,1-1.49-1.49V12.291a.5.5,0,0,0-.848-.351L.146,22.185A.493.493,0,0,0,0,22.536V44.311a.489.489,0,0,0,.146.348s.685-.686.688-.69l21.5-21.489" transform="translate(0 -1.935)" fill="#d70e2e"/>
      <path id="Caminho_13" data-name="Caminho 13" d="M32.544,35.664H24a1.49,1.49,0,0,1-1.49-1.49V25.627h0v-.7a.483.483,0,0,0-.147-.347l-.68.68-.006.008c-.005.005-.011.007-.016.012l-10.39,10.39L.855,46.075l-.68.68a.489.489,0,0,0,.348.146l.74,0,0,0H21.888a1.493,1.493,0,0,0,1.054-.436L32.9,36.512a.5.5,0,0,0-.351-.848" transform="translate(-0.029 -4.033)" fill="#fff"/>
    </g>
  </g>
</svg>
